<svg xmlns="http://www.w3.org/2000/svg" viewBox="0 0 64 64" width="64" height="64">
  <rect width="64" height="64" rx="15" fill="#2F5FEF"/>
  <!-- 확정 로고의 '펼친 웹툰책'을 작은 크기에서도 읽히도록 다시 그렸다.
       칸 분할선은 32px 이상에서 보인다. 16px에서는 책 실루엣만 남는다. -->
  <g transform="translate(0,1.5)">
    <path d="M31.1 21.2C26.7 17.6 20.9 15.7 14 15.7c-1.2 0-2.2 1-2.2 2.1v23.6c0 1.2 1 2.1 2.2 2.1 6.9 0 12.7 1.9 17.1 5.5z" fill="#fff"/>
    <path d="M32.9 21.2c4.4-3.6 10.2-5.5 17.1-5.5 1.2 0 2.2 1 2.2 2.1v23.6c0 1.2-1 2.1-2.2 2.1-6.9 0-12.7 1.9-17.1 5.5z" fill="#fff"/>
    <path d="M30.2 21.6h3.6v27.4h-3.6z" fill="#0E1D46"/>
    <!-- 칸 분할선 — 페이지마다 한 줄. 로고의 4칸 구성을 따른다. -->
    <g stroke="#9CBCFF" stroke-width="1.7" stroke-linecap="round">
      <path d="M15.6 30.6c4.6.2 8.6 1.3 12 3.1"/>
      <path d="M48.4 30.6c-4.6.2-8.6 1.3-12 3.1"/>
    </g>
  </g>
</svg>
